<svg xmlns="http://www.w3.org/2000/svg" viewBox="0 0 512 512">
  <defs>
    <linearGradient id="bgGrad" x1="0%" y1="0%" x2="100%" y2="100%">
      <stop offset="0%" style="stop-color:#f97316"/>
      <stop offset="100%" style="stop-color:#ea580c"/>
    </linearGradient>
  </defs>
  <!-- Background circle -->
  <circle cx="256" cy="256" r="256" fill="url(#bgGrad)"/>
  <!-- Bitcoin symbol -->
  <g fill="#ffffff">
    <!-- Vertical bars -->
    <rect x="200" y="100" width="24" height="60" rx="4"/>
    <rect x="288" y="100" width="24" height="60" rx="4"/>
    <rect x="200" y="352" width="24" height="60" rx="4"/>
    <rect x="288" y="352" width="24" height="60" rx="4"/>
    <!-- Main B shape -->
    <path d="M180 148h108c44 0 80 28 80 72 0 28-16 52-40 64 32 12 56 40 56 76 0 48-40 84-92 84H180V148zm48 40v64h56c24 0 40-12 40-32s-16-32-40-32h-56zm0 104v72h64c28 0 48-16 48-36s-20-36-48-36h-64z"/>
  </g>
  <!-- Small sorting indicator (three horizontal lines) -->
  <g fill="#ffffff" opacity="0.9">
    <rect x="340" y="380" width="80" height="12" rx="6"/>
    <rect x="360" y="400" width="60" height="12" rx="6"/>
    <rect x="380" y="420" width="40" height="12" rx="6"/>
  </g>
</svg>
