<svg xmlns="http://www.w3.org/2000/svg" viewBox="0 0 512 512" width="512" height="512">
  <defs>
    <linearGradient id="orangeGradient" x1="0%" y1="0%" x2="100%" y2="100%">
      <stop offset="0%" stop-color="#f97316"/>
      <stop offset="100%" stop-color="#ea580c"/>
    </linearGradient>
  </defs>
  <!-- Full background for maskable icon (no rounded corners - OS will mask it) -->
  <rect width="512" height="512" fill="url(#orangeGradient)"/>
  <!-- Lucide Zap icon - stroke style with white outline, centered with safe zone padding for maskable -->
  <g transform="translate(144, 112) scale(9.33)">
    <path 
      d="M4 14a1 1 0 0 1-.78-1.63l9.9-10.2a.5.5 0 0 1 .86.46l-1.92 6.02A1 1 0 0 0 13 10h7a1 1 0 0 1 .78 1.63l-9.9 10.2a.5.5 0 0 1-.86-.46l1.92-6.02A1 1 0 0 0 11 14z" 
      fill="none" 
      stroke="white" 
      stroke-width="2.2" 
      stroke-linecap="round" 
      stroke-linejoin="round"
    />
  </g>
</svg>
